<svg width="32" height="32" viewBox="0 0 32 32" fill="none" xmlns="http://www.w3.org/2000/svg">
<path d="M16 32C24.8366 32 32 24.8366 32 16C32 7.16344 24.8366 0 16 0C7.16344 0 0 7.16344 0 16C0 24.8366 7.16344 32 16 32Z" fill="#72747D"/>
<path d="M22.3052 24.5452V14.7272C22.3043 14.4778 22.2257 14.2349 22.0804 14.0322C21.935 13.8295 21.7301 13.6771 21.4942 13.5962L17.2282 12.1562V17.3713C17.2287 17.6872 17.1334 17.9959 16.9549 18.2565C16.7763 18.5172 16.5229 18.7176 16.2282 18.8312C14.7712 19.3862 12.1692 20.3722 11.4682 20.6012C10.6802 20.8582 10.7992 21.3142 10.8762 21.6712C10.9242 21.6982 10.9592 22.1642 11.0102 22.1862L20.7102 25.6673C20.8903 25.7322 21.0835 25.7528 21.2733 25.7275C21.4631 25.7021 21.644 25.6316 21.8009 25.5217C21.9577 25.4118 22.0858 25.2658 22.1745 25.0961C22.2631 24.9263 22.3096 24.7377 22.3102 24.5462L22.3052 24.5452Z" stroke="white"/>
<path d="M9.75677 18.9541V10.4141C9.74377 11.9181 9.75277 16.5941 9.75677 18.9541Z" stroke="white"/>
<path d="M17.2273 12.1556V8.4086C17.2271 8.15814 17.1667 7.9114 17.0512 7.68917C16.9357 7.46695 16.7684 7.27577 16.5635 7.13174C16.3586 6.98772 16.122 6.89508 15.8738 6.86164C15.6256 6.8282 15.373 6.85494 15.1373 6.9396L10.8453 8.4886C10.8165 8.5354 10.7917 8.58458 10.7713 8.6356C10.7123 8.7905 10.6855 8.95578 10.6925 9.12138C10.6995 9.28697 10.7402 9.4494 10.8121 9.59875C10.8839 9.7481 10.9855 9.88124 11.1105 9.99005C11.2355 10.0989 11.3814 10.181 11.5393 10.2316L17.2273 12.1556Z" stroke="white"/>
<path d="M10.8447 8.48828C10.8159 8.53508 10.7911 8.58426 10.7707 8.63528C10.7122 8.79 10.6858 8.95501 10.6931 9.12026C10.7003 9.28551 10.7411 9.44756 10.8129 9.59656C10.8848 9.74556 10.9861 9.8784 11.1109 9.987C11.2357 10.0956 11.3812 10.1777 11.5387 10.2283L17.2257 12.1543V17.3693C17.2263 17.6852 17.131 17.9939 16.9524 18.2546C16.7739 18.5152 16.5205 18.7156 16.2257 18.8293C14.7687 19.3843 12.1667 20.3703 11.4657 20.5993C10.6777 20.8563 10.9767 21.4993 11.0527 21.8603C10.4167 21.4943 9.81172 21.0853 9.76172 20.3533V10.1343C9.76495 9.67078 9.93948 9.22485 10.2517 8.88228C10.4134 8.7049 10.6159 8.56966 10.8417 8.48828H10.8447Z" stroke="white"/>
</svg>
